PathFileType	3	(X/Y/Z)	results
DataRate	CameraRate	NumFrames	NumMarkers	Units	OrigDataRate	OrigDataStartFrame	OrigNumFrames
30.0	30.0	4	85	mm	30.0	22	173
Frame#	Time	head			nose			neck			shoulder_r			elbow_r			wrist_r			shoulder_l			elbow_l			wrist_l			hip_r			knee_r			ankle_r			hip_l			knee_l			ankle_l			heel_r			heel_l			mtoe_r			ltoe_r			mtoe_l			ltoe_l			asis_l			asis_r			psi_r			psi_l			mhnd_r			lhnd_r			mhnd_l			lhnd_l			l_lat_knee			r_med_wrist			l_lat_ankle			r_med_ankle			r_lat_knee			xiphoid			l_med_ankle			r_med_knee			l_med_elbow			navel			r_lat_elbow			r_lat_wrist			l_med_wrist			l_lat_elbow			l_med_knee			r_med_elbow			r_lat_ankle			l_lat_wrist			chin			T10			r_eye			l_eye			l_ear			r_ear			spinal_cord_8			spinal_cord_12			spinal_cord_27			spinal_cord_33			up_arm_r_0			up_arm_r_5			up_arm_l_0			up_arm_l_5			front_torso_11			front_torso_7			front_torso_4			front_torso_1			front_torso_10			thigh_r_2			thigh_r_3			thigh_l_1			thigh_l_5			shank_l_0			shank_l_4			shank_r_1			shank_r_2			foot_r_1			foot_r_3			foot_r_5			foot_r_6			foot_r_7			foot_l_1			foot_l_7			foot_l_0			foot_l_4			foot_l_5			foot_l_6			
		X1	Y1	Z1	X2	Y2	Z2	X3	Y3	Z3	X4	Y4	Z4	X5	Y5	Z5	X6	Y6	Z6	X7	Y7	Z7	X8	Y8	Z8	X9	Y9	Z9	X10	Y10	Z10	X11	Y11	Z11	X12	Y12	Z12	X13	Y13	Z13	X14	Y14	Z14	X15	Y15	Z15	X16	Y16	Z16	X17	Y17	Z17	X18	Y18	Z18	X19	Y19	Z19	X20	Y20	Z20	X21	Y21	Z21	X22	Y22	Z22	X23	Y23	Z23	X24	Y24	Z24	X25	Y25	Z25	X26	Y26	Z26	X27	Y27	Z27	X28	Y28	Z28	X29	Y29	Z29	X30	Y30	Z30	X31	Y31	Z31	X32	Y32	Z32	X33	Y33	Z33	X34	Y34	Z34	X35	Y35	Z35	X36	Y36	Z36	X37	Y37	Z37	X38	Y38	Z38	X39	Y39	Z39	X40	Y40	Z40	X41	Y41	Z41	X42	Y42	Z42	X43	Y43	Z43	X44	Y44	Z44	X45	Y45	Z45	X46	Y46	Z46	X47	Y47	Z47	X48	Y48	Z48	X49	Y49	Z49	X50	Y50	Z50	X51	Y51	Z51	X52	Y52	Z52	X53	Y53	Z53	X54	Y54	Z54	X55	Y55	Z55	X56	Y56	Z56	X57	Y57	Z57	X58	Y58	Z58	X59	Y59	Z59	X60	Y60	Z60	X61	Y61	Z61	X62	Y62	Z62	X63	Y63	Z63	X64	Y64	Z64	X65	Y65	Z65	X66	Y66	Z66	X67	Y67	Z67	X68	Y68	Z68	X69	Y69	Z69	X70	Y70	Z70	X71	Y71	Z71	X72	Y72	Z72	X73	Y73	Z73	X74	Y74	Z74	X75	Y75	Z75	X76	Y76	Z76	X77	Y77	Z77	X78	Y78	Z78	X79	Y79	Z79	X80	Y80	Z80	X81	Y81	Z81	X82	Y82	Z82	X83	Y83	Z83	X84	Y84	Z84	X85	Y85	Z85	
22	0.7333333333333333	-216.42164318473021	1624.4056098502765	-243.64100874918162	-170.6339414912462	1447.5774625287406	-304.5311185722636	-245.53602064297937	1346.666435929142	-156.01172195277388	-68.19400768262723	1300.2456883489936	-147.64736211482253	46.00075653571094	1070.4313298859151	-77.53722291965752	47.45359889182762	857.9798724621097	-150.92526489332968	-396.5267032772326	1327.9841949799275	-205.91318627627953	-498.0859588855521	1075.5489507014588	-212.86060699516835	-498.3712553503214	841.3309300269714	-277.4100251597279	-152.48211956204347	856.8848779375916	-186.20055882116012	-133.6798698438725	482.5082748745119	-144.91813222446044	-67.97141789474786	86.37535194627915	-120.72576232886809	-328.3279306040563	852.3233133717789	-190.89734341693097	-331.4365661781923	477.87529383715884	-107.27677267709267	-393.1211398416324	83.7529949359186	-79.5531774757821	-68.67600298699222	28.69653623558254	-106.11631809396914	-407.6171398717118	18.047973589591088	-55.16023449540235	16.038912746255935	29.024059483043867	-317.9720879130322	54.305026866964866	38.54885188023903	-236.63927736297472	-378.8284083205238	27.024944385735793	-269.80013255291004	-459.45017206951604	12.818038305532346	-224.10625212596702	-368.11589716946077	915.0622845884217	-226.94970276280674	-110.6361360516393	918.4571175731032	-217.0509893602447	-200.82369892638812	908.9997682207795	-77.67013149901747	-288.3943126626284	907.4574219359602	-85.99190847898467	67.17492063467542	787.3263352778562	-150.01152175042515	39.069482608822845	783.8300469696286	-195.4747219917978	-527.688933689234	771.931791377412	-289.1934920632109	-478.0888032556388	759.9580894825795	-305.07445071221804	-381.2104625284083	472.54880646065067	-103.0206531103665	69.21186599587418	861.1825814247784	-133.14738908038788	-449.08266698601375	77.26052783057774	-73.34446603274702	-97.73125709208705	70.22301378469831	-141.43088020716488	-91.84637805178717	475.5760583980538	-139.5635603121239	-214.24328950524912	1178.2490514644794	-251.42221404643828	-364.61977706255345	66.36098656753036	-93.39419719718185	-171.65314208301922	473.47492784806127	-158.4895122932533	-500.7942482351757	1085.391117593529	-176.85188591307326	-205.29101263754765	957.6547477891351	-270.34576194739856	68.30711521524601	1079.1703086857156	-110.40715819413154	19.96695990807318	868.7993692172448	-160.9232004585159	-529.9675176799069	852.9476912755221	-280.44217272478676	-499.4951978400555	1089.4437570119483	-251.85828152185573	-292.2381049260091	469.3062018710823	-136.08274511333892	20.71357354151393	1073.3587624243332	-50.009447270279225	-17.23334472973481	76.13322024014141	-112.2537291768558	-467.49076849596923	850.608087115558	-281.7448821391236	-181.43192535083648	1384.3902902552452	-274.5391424146074	-263.31939568489037	1184.6047153397667	-60.045760684471496	-143.6344041529424	1477.6679886180348	-296.0594059228521	-198.34476105716953	1472.8596020143864	-325.9009671655535	-284.5122273163018	1483.9706956231353	-269.08890216485037	-150.04047141962704	1493.631855246987	-192.47985677680927	-259.99311900226803	1405.1070558087813	-107.24982346741156	-269.344389256103	1285.5026009412281	-58.99760037553574	-241.83776908544942	1032.494082520269	-75.12178041385945	-259.8390895897376	1175.2172089467865	-72.96643386287761	-31.6703578508101	1165.579496563414	-149.99374319974754	29.780616768773154	1183.5972935429263	-86.95300493934191	-423.6914897029842	1280.569884987039	-236.69738226968627	-488.083543812487	1152.1923443423325	-172.19667609299373	-167.90587481575596	986.213333333706	-218.93093467726922	-202.3817280012483	1091.370056254055	-282.5636116694965	-279.0183277580224	1222.0363357682245	-272.80660486521936	-285.63850196748604	1016.567732955433	-252.53133830838848	-134.19696725087076	1268.2847559557774	-242.98142909206746	-158.54888358441585	651.7932108635792	-169.94318075461223	-66.14234436213542	623.9483959702268	-146.46522158524226	-285.44678332412843	581.7400700090309	-140.9748334525961	-429.9925838563588	750.134594965492	-170.86539965744464	-447.1493353053656	189.2337554444955	-94.64999991562996	-306.2134542597646	317.47489772620486	-102.51837052030496	-47.70264216350295	323.1905185781693	-119.68205128250452	-138.0882090722449	268.4710664575283	-146.60850299760628	32.05001818785369	26.92304614422042	-291.83740060890386	47.20140560816441	33.97355604817476	-267.1369278588528	-28.929298457843444	33.3672536302677	-245.70341659666443	-2.133030475140643	48.50266800973264	-219.66428564951832	24.749257593062346	42.44507190028033	-195.9084200320302	-428.0933323867044	14.463978207864464	-250.01500222825774	-454.222133865396	38.90491817421244	-150.06162104170204	-442.95197923961285	14.273862155435152	-243.79160261081353	-409.89567975861473	14.639306127461893	-257.04665342659007	-421.34360453868186	27.19843781755502	-201.2856546185057	-394.66876171349725	36.97427003979527	-169.7998650612802	
23	0.7666666666666666	-218.89672307621132	1624.1888135598608	-240.23490318983312	-172.52142690660557	1448.0680877936773	-302.70997539130775	-243.63473541416946	1344.8235810459516	-153.16780783587797	-64.05582210430771	1288.7432997783787	-153.93904383826768	50.86913246886221	1061.0317019604788	-78.37319054316325	57.80029235816878	842.3798493328844	-130.01487508433462	-401.75612148895453	1324.1404673421084	-208.93861820171765	-491.8913942073885	1067.4856358678805	-218.4271218350844	-502.0942412204644	833.4095065153637	-282.68486509067964	-151.68487719887335	856.712314839477	-186.47760250711525	-136.16972981836366	481.9832876706448	-147.35930268573583	-70.44086663891048	85.80830764540742	-123.92288244884521	-327.6051384756313	852.8849406550654	-185.0528930559915	-334.89874434632475	476.83146469807576	-108.59413434920847	-392.1344314977649	82.5140448508312	-74.7737356017195	-71.65302558422789	27.96235329987893	-110.1866549163282	-406.66137826452683	17.138136718204183	-49.581417710623434	18.94768094785834	29.18404705234913	-319.5896416788351	55.35897239428913	34.27386851282383	-237.016311815108	-376.82602852689945	22.802419083582897	-264.1913678957375	-458.1330999868993	12.53871503236164	-218.65619260685548	-368.3681290605132	916.8639818225489	-217.67335131461974	-110.68674557311711	919.0899234500074	-216.84474332348802	-195.9140084286465	905.5301290013643	-74.70851594687822	-283.7307040142134	904.5421807108421	-79.95209572747866	80.84253790351218	773.0549895941359	-123.32110806614844	50.19066472932118	763.753016951764	-166.25103038869997	-534.3800994999634	765.3671741114784	-294.6214122021975	-485.23577771387704	751.1691074328529	-310.0809679035217	-384.78767002499467	471.5076160012454	-107.40596583374227	80.4356433358047	848.2780126964707	-114.12195352954616	-448.2574815352357	75.24904600481214	-71.64071892652827	-98.41280711622046	69.84501411149357	-147.11753202532384	-95.17582189095125	475.07736467180905	-137.38982280794838	-214.59200776936572	1175.724432532336	-248.08256093807663	-362.6193767173807	65.2709311109958	-86.51767157501848	-172.31283190981688	472.96341348799103	-165.26703373118693	-495.7545922049609	1077.0961058858118	-182.4612263010265	-205.7770435384907	955.004612582328	-265.55105334956653	70.89176485180623	1067.3290909052803	-113.21301140789953	29.272424221838868	850.9875634941004	-139.212893606724	-533.1155176170504	846.4181005710045	-285.98997407288687	-493.1307023461833	1081.4154554422464	-257.4180753665008	-293.94773443723534	468.99534639791926	-135.00110006640097	27.691990781711002	1066.1274941882284	-49.34487812172164	-20.462385884326444	75.6510549434935	-111.67501099597561	-470.7966773584888	841.2940858826179	-286.778396762351	-183.42101930121714	1384.5549148870277	-273.45233395945047	-258.6110371457698	1183.4776094508886	-55.53122008872037	-145.61114217908994	1478.0995056489635	-293.75814823075535	-200.13447805229782	1473.5415815945485	-323.97889748175015	-286.65683156226146	1483.9497308869948	-267.57453467400086	-152.6617244227729	1492.9609548932208	-190.05649755317378	-256.8967016164481	1403.615708947381	-104.48883457169516	-264.77330753386616	1284.3717045484755	-55.0947518596083	-237.28294766824132	1031.2871155431317	-70.00731874610119	-255.45738375596576	1173.9962668219853	-68.46722466616636	-30.15797617634655	1153.409778550005	-150.73907748894322	35.992781234337826	1173.7717030802633	-93.42880534227315	-426.1738805466226	1275.660056100044	-240.3572735679308	-486.10680749772723	1144.3801532943805	-177.4199868602447	-167.09541709569535	984.0113331817281	-215.3607381753564	-203.41258249347933	1088.6262825587403	-278.86203165609555	-279.981226541555	1219.2520822900578	-268.0830057573174	-285.7238504891316	1013.9357641928948	-246.0718341488784	-134.49998199162334	1265.9385264761113	-242.44577984748648	-158.7206472070022	651.4350751836763	-173.23174692180186	-69.4593999796384	623.589602023002	-139.72687948263538	-287.16163905297674	581.5092275194867	-137.45155844768587	-430.0405565053729	750.199356048321	-173.12936554703984	-446.781470073404	186.70230890027727	-95.55010678609412	-307.5771188282513	317.02654073473275	-98.44278495090333	-51.572592387392284	322.6633010708142	-117.83715607464119	-139.29652412417187	267.97908180182327	-152.52073880978043	34.06236582127474	25.45469909348413	-293.1051197844253	48.879276186589024	30.94682570572548	-267.8131586654557	-27.74305974751204	34.137622123705874	-248.46158086272493	-0.8841236097869298	46.99194313896867	-221.28583676053452	24.923073219431753	38.75343422760537	-196.99986145834407	-426.6518911677245	12.576828487244805	-244.4661884140356	-452.01570927787486	39.08319392686825	-144.84268945002233	-441.52459686973964	13.089991348518126	-238.29484154399984	-408.44139587367573	11.896551859667447	-251.4335770555867	-419.5121333876897	25.473501117727512	-195.83518698542167	-392.53928535636464	34.38634495016892	-164.34716127206295	
24	0.8	-219.63516887754898	1624.5919421157028	-236.23405565636025	-174.65342833281406	1448.9347936521706	-300.9914644759857	-242.35721930092697	1342.9466669613769	-148.84061631252897	-52.019159170458614	1281.1389075283735	-158.7603106921921	45.25352514502541	1047.7854578227264	-75.96714946991686	59.42475676384626	827.938578941359	-120.57727452765727	-406.4581438164927	1321.6421218845155	-215.78387465416708	-485.24221323924087	1061.2258500266628	-223.69193163042692	-501.59083627286805	827.4041602097848	-287.60538783657	-150.74575911407538	855.6030621319601	-188.09739897336587	-138.99099605222878	480.95122125483573	-147.7543731716196	-71.4259293910868	85.08682197148437	-124.29156870396238	-326.3843831314434	855.2892194906001	-177.34601887904734	-335.30417283958786	476.7538703921008	-113.68167129084846	-390.9485057922674	82.74777308517068	-74.07265280593448	-72.69806428510434	26.966304852220365	-111.52371237746475	-404.43802568876964	17.14920169507328	-48.07437322792345	20.471459942813006	30.813771477782637	-319.7645061247645	56.07816280225624	29.095120108022293	-236.70276895879343	-376.50516619935047	23.6546099035462	-262.916403408063	-456.7874872137234	9.06350974301125	-216.74840142084017	-367.38713493303464	921.2634008204633	-205.36770957907603	-110.0388276796969	918.2362015210903	-218.33002501860662	-187.88781091205152	901.0650962253119	-72.4021303418172	-275.8592340092054	902.0543503446099	-72.94369184098996	82.43483388582798	759.1252633016771	-109.76285286134544	56.17354259164525	748.27677970642	-155.16876919382298	-535.3715327628393	759.8818292240148	-298.29258408492063	-487.0996561841998	744.9422857541025	-315.6817558936825	-385.06428744143784	472.2473422030447	-109.64712630500506	80.35562054568551	834.5558790876003	-102.7491315898295	-446.78328807422844	75.6065904379481	-67.44895707370583	-96.95376111480685	69.23482498135026	-150.22016223315183	-99.51527272400982	474.074956538938	-132.78139275542463	-216.61678974893505	1173.5424289059736	-244.16347206537893	-362.238448321362	65.38130662789521	-87.50849684658063	-172.54218976983117	471.7541575082625	-170.10979041402803	-488.40739563215686	1070.5317235844639	-187.57803663076564	-206.666574161904	952.8084293804759	-260.82436650520896	68.66632798951568	1053.4852454264071	-108.73495557880207	31.83089972343038	835.9228846853384	-132.71669229141315	-532.5129652818612	840.8942594593976	-289.68048150888603	-488.3223429932704	1075.2169524745862	-262.5587821372071	-296.02792752659485	469.44107001644323	-142.5765702571241	19.743276957134405	1053.6620450680732	-49.12533736656719	-22.69011644912383	75.20478684278869	-107.6124022165714	-470.36030547508176	834.8083557085881	-292.9244979260465	-186.2789244730012	1385.1227913511104	-272.67874593788395	-250.86577586050734	1182.0669380753668	-49.668882793064434	-147.500013010319	1478.5803674283634	-291.50375222109767	-201.9322163490255	1474.966052188351	-322.0149710882534	-288.5965550214769	1485.4012194207967	-265.8340218292499	-154.86018816515633	1492.0480831690093	-187.63338016395608	-253.67022889962453	1401.9114598225387	-99.87935095466247	-257.9276564667573	1282.9028338539922	-49.48321847981717	-228.89877465589723	1029.9880201297904	-64.36054177243086	-248.28616208677988	1172.5360481147472	-62.69536856300029	-24.580395784217263	1144.3866187003157	-154.24461856532523	36.83171179159249	1161.214765842595	-90.83827442719097	-429.64601736610376	1272.2183855750861	-246.65985149834393	-481.6347516082903	1138.1643089300376	-182.518236937631	-165.7539473067063	982.4621129780365	-212.8291395093785	-206.21322370345078	1086.3629306756084	-274.98463359187764	-283.3361466314247	1216.3632057563643	-261.0552601634946	-286.0602745637189	1011.1406987535559	-237.63386761638787	-137.17678550989936	1264.4999332837217	-243.1114434460094	-158.67624467871758	650.2823018219788	-176.08937436731426	-74.22250882646165	622.6743378034146	-131.69473958348533	-287.5963898860908	581.8656399129843	-141.549663019159	-429.5860941441754	753.6877599659324	-162.99105709869528	-446.6124061689862	186.91615840552893	-92.06232998245686	-307.65226063272	316.9595204380502	-104.2863366745482	-55.77118934796856	321.9808408739917	-112.91225977579958	-139.30623074408885	267.03714839564094	-156.40812697667727	34.89256212810587	24.649838804763785	-293.3480457116002	49.76255169992787	27.747642230992206	-267.6833889087425	-26.615530311852904	36.12089124021138	-248.92374076530223	0.8155577308001649	45.50095562821836	-220.9111206166153	25.566768989255735	34.09848681121388	-196.80605310457966	-425.5431457772682	10.7524993999582	-242.7899506654516	-451.62421404190707	36.18395676453557	-143.0714916006158	-440.3766957005375	10.462278226305425	-236.51079454735057	-407.37347909180517	11.058199556946935	-249.88918862316285	-418.781805171316	24.208401383037064	-194.25648199611643	-392.1203054165712	34.72341580398725	-162.99839533070238	
25	0.8333333333333334	-220.50650490305927	1625.2671422417266	-232.35656038290188	-176.81029259441766	1450.1318041266463	-299.36825457876495	-242.0314023049658	1341.0686758875295	-144.04027852885926	-39.77055362410656	1282.9695657890104	-154.79569128800233	19.99439206909225	1034.0829319757868	-82.31045193505071	52.8563730356713	817.5745299352467	-132.98331715840504	-407.5519508804139	1319.3856399298847	-219.78476041631828	-478.45658429486383	1056.7685875551056	-229.31987292935196	-496.7601232546876	823.8353532514717	-295.89223060523057	-150.0132433160019	852.7766400416671	-189.1184609495803	-141.1018075513801	478.2038395702948	-147.91349288671373	-71.25558275870114	82.75150214482396	-124.18339062560405	-324.86042609389	857.8205930269563	-169.94456904500345	-334.55575314988465	477.1340616449939	-119.98321266734857	-387.67420571940346	83.24861715221249	-75.95302457475883	-72.15665156882699	24.14604542897294	-112.1757716729071	-398.93391497824746	16.921052342270194	-49.444649805209714	22.105946642096058	34.460865377740866	-319.7035011279062	57.23496501473167	27.889167225511546	-236.68056403428523	-379.6386333473518	29.19697333193533	-264.98271321345874	-456.459800343772	6.452057350035537	-216.291720441425	-364.9584085173988	925.6541699198423	-194.6385168585373	-108.75186931408301	914.7191349123171	-220.01510217166177	-180.1177102500075	896.8959335144536	-70.88592416940159	-267.9360327796113	900.6954863055798	-67.1779839079732	73.38295906869352	748.4178787819151	-119.65272671581195	62.32139338028253	740.2008356897549	-171.4133702791312	-530.7497675244399	756.3474591455131	-306.12477829917134	-483.2113431727135	741.8433871158634	-325.75835740287425	-383.36049875537344	473.55887193325225	-109.37871907769897	67.25845577683648	823.2438291085606	-109.3153755476298	-442.1437583288554	76.47627541217467	-61.82518068015071	-95.18421974208967	66.91127513913703	-151.60155073924457	-103.13357350283914	471.353673753117	-129.39463000314362	-218.81422049922602	1171.8760201753034	-240.3814438507236	-361.2151868976305	65.77617487048887	-93.30288180701956	-172.39983419777764	468.8661661362177	-173.30047731661162	-480.5133150061729	1065.3692656738376	-192.95190255733525	-206.75731022745614	951.2686982059678	-257.32638848038397	52.24380755947629	1042.0892151378762	-105.76787428723078	29.996737965249064	826.0666523935396	-152.42184819404977	-527.7849218654744	837.2371220056152	-296.4590810111464	-483.4672779969427	1071.297530941963	-267.7863904219947	-299.59646666359936	470.3706453566218	-154.02308007089516	-12.077873667290053	1038.4439988721722	-63.38584405769625	-23.41210013125339	73.14702369340893	-104.95362619994621	-465.80668923340284	831.4336223644492	-302.4200423225439	-188.65188308168794	1386.0592572907794	-271.7418305269405	-243.43246890076173	1180.242230589893	-44.427995472301	-149.44781121781742	1479.5158229288072	-289.6698658478159	-204.04578235141105	1476.5549445908193	-319.95447017547497	-290.37893994874037	1486.8100270301074	-263.23305838254373	-156.23202914273676	1491.8139587942653	-185.6153802248901	-251.6759840952024	1399.9527040674718	-94.6268212911938	-251.8236630052097	1280.9753814782737	-43.97779550314565	-220.19438963113367	1028.4467715186186	-60.065180199295746	-241.3784872545372	1170.7265497147157	-57.55866868642578	-19.955950739621453	1145.0463536213006	-162.47909998039563	20.535104202894754	1148.7912213069835	-82.34515956955977	-430.3678406908764	1269.7701199145843	-250.6302541291294	-475.65423474530076	1133.089423750805	-186.95136844911465	-163.90224455318614	981.5377968987984	-211.45754489504975	-208.79608353706934	1084.7955334279425	-271.60753639612005	-286.859388984071	1213.7791339596258	-253.9611389534421	-285.66846349067356	1008.5747061208795	-230.2549293408364	-140.64363274076024	1263.8841820022565	-243.37243149083815	-158.49544030257215	647.4312426213676	-177.93722832166526	-78.42680456227521	620.0156220568749	-125.94767077407762	-288.3546517565654	582.4789856534054	-149.9278492620876	-427.68735603382703	757.7279719491571	-145.70401735745142	-444.3710385399915	187.979735286582	-85.44053387670074	-307.25969873293127	317.0631397626882	-115.58318772404405	-58.43745371303879	319.6611568160505	-109.94095963189407	-138.9651441258406	264.38224866617963	-158.40059580780428	36.19914920086782	26.665186942295527	-293.54244850449277	51.03232526679975	28.137163064821223	-267.71227702163384	-25.13982250160489	38.038840202898484	-248.86001446681072	2.4318440499609824	45.28534712579086	-220.35653349154566	26.698682105153733	32.04041387970192	-196.7052048237319	-426.48680299332284	11.451829487442497	-243.3813042943115	-451.14679324584745	32.84477503045326	-142.36160826667745	-440.9879437126117	9.677455707823354	-236.59052019077618	-408.6979150495119	13.566941026306557	-251.1086057979231	-419.23242851172654	24.76376286434971	-194.87933436839188	-392.5382400761613	37.27188526455089	-164.39267733263765	
